# Blender 4.1.1
# www.blender.org
o Cube
v 1.000000 1.000000 -1.000000
v 1.000000 -1.000000 -1.000000
v 1.000000 1.000000 1.000000
v 1.000000 -1.000000 1.000000
v -1.000000 1.000000 -1.000000
v -1.000000 -1.000000 -1.000000
v -1.000000 1.000000 1.000000
v -1.000000 -1.000000 1.000000
v 1.000000 3.000000 -1.400000
v 1.000000 1.000000 -1.400000
v 1.000000 3.000000 0.600000
v 1.000000 1.000000 0.600000
v -1.000000 3.000000 -1.400000
v -1.000000 1.000000 -1.400000
v -1.000000 3.000000 0.600000
v -1.000000 1.000000 0.600000
v 1.000000 5.000000 -1.800000
v 1.000000 3.000000 -1.800000
v 1.000000 5.000000 0.200000
v 1.000000 3.000000 0.200000
v -1.000000 5.000000 -1.800000
v -1.000000 3.000000 -1.800000
v -1.000000 5.000000 0.200000
v -1.000000 3.000000 0.200000
v 1.000000 7.000000 -2.200000
v 1.000000 5.000000 -2.200000
v 1.000000 7.000000 -0.200000
v 1.000000 5.000000 -0.200000
v -1.000000 7.000000 -2.200000
v -1.000000 5.000000 -2.200000
v -1.000000 7.000000 -0.200000
v -1.000000 5.000000 -0.200000
v 1.000000 9.000000 -2.600000
v 1.000000 7.000000 -2.600000
v 1.000000 9.000000 -0.600000
v 1.000000 7.000000 -0.600000
v -1.000000 9.000000 -2.600000
v -1.000000 7.000000 -2.600000
v -1.000000 9.000000 -0.600000
v -1.000000 7.000000 -0.600000
v 1.000000 11.000000 -3.000000
v 1.000000 9.000000 -3.000000
v 1.000000 11.000000 -1.000000
v 1.000000 9.000000 -1.000000
v -1.000000 11.000000 -3.000000
v -1.000000 9.000000 -3.000000
v -1.000000 11.000000 -1.000000
v -1.000000 9.000000 -1.000000
v 1.000000 13.000000 -3.400000
v 1.000000 11.000000 -3.400000
v 1.000000 13.000000 -1.400000
v 1.000000 11.000000 -1.400000
v -1.000000 13.000000 -3.400000
v -1.000000 11.000000 -3.400000
v -1.000000 13.000000 -1.400000
v -1.000000 11.000000 -1.400000
v 1.000000 15.000000 -3.800000
v 1.000000 13.000000 -3.800000
v 1.000000 15.000000 -1.800000
v 1.000000 13.000000 -1.800000
v -1.000000 15.000000 -3.800000
v -1.000000 13.000000 -3.800000
v -1.000000 15.000000 -1.800000
v -1.000000 13.000000 -1.800000
v 1.000000 17.000000 -4.200000
v 1.000000 15.000000 -4.200000
v 1.000000 17.000000 -2.200000
v 1.000000 15.000000 -2.200000
v -1.000000 17.000000 -4.200000
v -1.000000 15.000000 -4.200000
v -1.000000 17.000000 -2.200000
v -1.000000 15.000000 -2.200000
v 1.000000 19.000000 -4.600000
v 1.000000 17.000000 -4.600000
v 1.000000 19.000000 -2.600000
v 1.000000 17.000000 -2.600000
v -1.000000 19.000000 -4.600000
v -1.000000 17.000000 -4.600000
v -1.000000 19.000000 -2.600000
v -1.000000 17.000000 -2.600000
v 1.000000 21.000000 -5.000000
v 1.000000 19.000000 -5.000000
v 1.000000 21.000000 -3.000000
v 1.000000 19.000000 -3.000000
v -1.000000 21.000000 -5.000000
v -1.000000 19.000000 -5.000000
v -1.000000 21.000000 -3.000000
v -1.000000 19.000000 -3.000000
v 1.000000 23.000000 -5.400001
v 1.000000 21.000000 -5.400001
v 1.000000 23.000000 -3.400001
v 1.000000 21.000000 -3.400001
v -1.000000 23.000000 -5.400001
v -1.000000 21.000000 -5.400001
v -1.000000 23.000000 -3.400001
v -1.000000 21.000000 -3.400001
v 1.000000 25.000000 -5.800001
v 1.000000 23.000000 -5.800001
v 1.000000 25.000000 -3.800001
v 1.000000 23.000000 -3.800001
v -1.000000 25.000000 -5.800001
v -1.000000 23.000000 -5.800001
v -1.000000 25.000000 -3.800001
v -1.000000 23.000000 -3.800001
v 1.000000 27.000000 -6.200001
v 1.000000 25.000000 -6.200001
v 1.000000 27.000000 -4.200001
v 1.000000 25.000000 -4.200001
v -1.000000 27.000000 -6.200001
v -1.000000 25.000000 -6.200001
v -1.000000 27.000000 -4.200001
v -1.000000 25.000000 -4.200001
v 1.000000 29.000000 -6.600001
v 1.000000 27.000000 -6.600001
v 1.000000 29.000000 -4.600001
v 1.000000 27.000000 -4.600001
v -1.000000 29.000000 -6.600001
v -1.000000 27.000000 -6.600001
v -1.000000 29.000000 -4.600001
v -1.000000 27.000000 -4.600001
v 1.000000 31.000000 -7.000001
v 1.000000 29.000000 -7.000001
v 1.000000 31.000000 -5.000001
v 1.000000 29.000000 -5.000001
v -1.000000 31.000000 -7.000001
v -1.000000 29.000000 -7.000001
v -1.000000 31.000000 -5.000001
v -1.000000 29.000000 -5.000001
v 1.000000 33.000000 -7.400001
v 1.000000 31.000000 -7.400001
v 1.000000 33.000000 -5.400001
v 1.000000 31.000000 -5.400001
v -1.000000 33.000000 -7.400001
v -1.000000 31.000000 -7.400001
v -1.000000 33.000000 -5.400001
v -1.000000 31.000000 -5.400001
v 1.000000 35.000000 -7.800001
v 1.000000 33.000000 -7.800001
v 1.000000 35.000000 -5.800001
v 1.000000 33.000000 -5.800001
v -1.000000 35.000000 -7.800001
v -1.000000 33.000000 -7.800001
v -1.000000 35.000000 -5.800001
v -1.000000 33.000000 -5.800001
v 1.000000 37.000000 -8.200001
v 1.000000 35.000000 -8.200001
v 1.000000 37.000000 -6.200001
v 1.000000 35.000000 -6.200001
v -1.000000 37.000000 -8.200001
v -1.000000 35.000000 -8.200001
v -1.000000 37.000000 -6.200001
v -1.000000 35.000000 -6.200001
v 1.000000 39.000000 -8.600001
v 1.000000 37.000000 -8.600001
v 1.000000 39.000000 -6.600001
v 1.000000 37.000000 -6.600001
v -1.000000 39.000000 -8.600001
v -1.000000 37.000000 -8.600001
v -1.000000 39.000000 -6.600001
v -1.000000 37.000000 -6.600001
v 1.000000 41.000000 -9.000001
v 1.000000 39.000000 -9.000001
v 1.000000 41.000000 -7.000001
v 1.000000 39.000000 -7.000001
v -1.000000 41.000000 -9.000001
v -1.000000 39.000000 -9.000001
v -1.000000 41.000000 -7.000001
v -1.000000 39.000000 -7.000001
v 1.000000 43.000000 -9.400001
v 1.000000 41.000000 -9.400001
v 1.000000 43.000000 -7.400001
v 1.000000 41.000000 -7.400001
v -1.000000 43.000000 -9.400001
v -1.000000 41.000000 -9.400001
v -1.000000 43.000000 -7.400001
v -1.000000 41.000000 -7.400001
v 1.000000 45.000000 -9.800000
v 1.000000 43.000000 -9.800000
v 1.000000 45.000000 -7.800000
v 1.000000 43.000000 -7.800000
v -1.000000 45.000000 -9.800000
v -1.000000 43.000000 -9.800000
v -1.000000 45.000000 -7.800000
v -1.000000 43.000000 -7.800000
v 1.000000 47.000000 -10.200000
v 1.000000 45.000000 -10.200000
v 1.000000 47.000000 -8.200000
v 1.000000 45.000000 -8.200000
v -1.000000 47.000000 -10.200000
v -1.000000 45.000000 -10.200000
v -1.000000 47.000000 -8.200000
v -1.000000 45.000000 -8.200000
v 1.000000 49.000000 -10.599999
v 1.000000 47.000000 -10.599999
v 1.000000 49.000000 -8.599999
v 1.000000 47.000000 -8.599999
v -1.000000 49.000000 -10.599999
v -1.000000 47.000000 -10.599999
v -1.000000 49.000000 -8.599999
v -1.000000 47.000000 -8.599999
v 1.000000 51.000000 -10.999999
v 1.000000 49.000000 -10.999999
v 1.000000 51.000000 -8.999999
v 1.000000 49.000000 -8.999999
v -1.000000 51.000000 -10.999999
v -1.000000 49.000000 -10.999999
v -1.000000 51.000000 -8.999999
v -1.000000 49.000000 -8.999999
v 1.000000 53.000000 -11.399999
v 1.000000 51.000000 -11.399999
v 1.000000 53.000000 -9.399999
v 1.000000 51.000000 -9.399999
v -1.000000 53.000000 -11.399999
v -1.000000 51.000000 -11.399999
v -1.000000 53.000000 -9.399999
v -1.000000 51.000000 -9.399999
v 1.000000 55.000000 -11.799998
v 1.000000 53.000000 -11.799998
v 1.000000 55.000000 -9.799998
v 1.000000 53.000000 -9.799998
v -1.000000 55.000000 -11.799998
v -1.000000 53.000000 -11.799998
v -1.000000 55.000000 -9.799998
v -1.000000 53.000000 -9.799998
v 1.000000 57.000000 -12.199998
v 1.000000 55.000000 -12.199998
v 1.000000 57.000000 -10.199998
v 1.000000 55.000000 -10.199998
v -1.000000 57.000000 -12.199998
v -1.000000 55.000000 -12.199998
v -1.000000 57.000000 -10.199998
v -1.000000 55.000000 -10.199998
v 1.000000 59.000000 -12.599998
v 1.000000 57.000000 -12.599998
v 1.000000 59.000000 -10.599998
v 1.000000 57.000000 -10.599998
v -1.000000 59.000000 -12.599998
v -1.000000 57.000000 -12.599998
v -1.000000 59.000000 -10.599998
v -1.000000 57.000000 -10.599998
vn -0.0000 1.0000 -0.0000
vn -0.0000 -0.0000 1.0000
vn -1.0000 -0.0000 -0.0000
vn -0.0000 -1.0000 -0.0000
vn 1.0000 -0.0000 -0.0000
vn -0.0000 -0.0000 -1.0000
s 0
f 1//1 5//1 7//1 3//1
f 4//2 3//2 7//2 8//2
f 8//3 7//3 5//3 6//3
f 6//4 2//4 4//4 8//4
f 2//5 1//5 3//5 4//5
f 6//6 5//6 1//6 2//6
f 9//1 13//1 15//1 11//1
f 12//2 11//2 15//2 16//2
f 16//3 15//3 13//3 14//3
f 14//4 10//4 12//4 16//4
f 10//5 9//5 11//5 12//5
f 14//6 13//6 9//6 10//6
f 17//1 21//1 23//1 19//1
f 20//2 19//2 23//2 24//2
f 24//3 23//3 21//3 22//3
f 22//4 18//4 20//4 24//4
f 18//5 17//5 19//5 20//5
f 22//6 21//6 17//6 18//6
f 25//1 29//1 31//1 27//1
f 28//2 27//2 31//2 32//2
f 32//3 31//3 29//3 30//3
f 30//4 26//4 28//4 32//4
f 26//5 25//5 27//5 28//5
f 30//6 29//6 25//6 26//6
f 33//1 37//1 39//1 35//1
f 36//2 35//2 39//2 40//2
f 40//3 39//3 37//3 38//3
f 38//4 34//4 36//4 40//4
f 34//5 33//5 35//5 36//5
f 38//6 37//6 33//6 34//6
f 41//1 45//1 47//1 43//1
f 44//2 43//2 47//2 48//2
f 48//3 47//3 45//3 46//3
f 46//4 42//4 44//4 48//4
f 42//5 41//5 43//5 44//5
f 46//6 45//6 41//6 42//6
f 49//1 53//1 55//1 51//1
f 52//2 51//2 55//2 56//2
f 56//3 55//3 53//3 54//3
f 54//4 50//4 52//4 56//4
f 50//5 49//5 51//5 52//5
f 54//6 53//6 49//6 50//6
f 57//1 61//1 63//1 59//1
f 60//2 59//2 63//2 64//2
f 64//3 63//3 61//3 62//3
f 62//4 58//4 60//4 64//4
f 58//5 57//5 59//5 60//5
f 62//6 61//6 57//6 58//6
f 65//1 69//1 71//1 67//1
f 68//2 67//2 71//2 72//2
f 72//3 71//3 69//3 70//3
f 70//4 66//4 68//4 72//4
f 66//5 65//5 67//5 68//5
f 70//6 69//6 65//6 66//6
f 73//1 77//1 79//1 75//1
f 76//2 75//2 79//2 80//2
f 80//3 79//3 77//3 78//3
f 78//4 74//4 76//4 80//4
f 74//5 73//5 75//5 76//5
f 78//6 77//6 73//6 74//6
f 81//1 85//1 87//1 83//1
f 84//2 83//2 87//2 88//2
f 88//3 87//3 85//3 86//3
f 86//4 82//4 84//4 88//4
f 82//5 81//5 83//5 84//5
f 86//6 85//6 81//6 82//6
f 89//1 93//1 95//1 91//1
f 92//2 91//2 95//2 96//2
f 96//3 95//3 93//3 94//3
f 94//4 90//4 92//4 96//4
f 90//5 89//5 91//5 92//5
f 94//6 93//6 89//6 90//6
f 97//1 101//1 103//1 99//1
f 100//2 99//2 103//2 104//2
f 104//3 103//3 101//3 102//3
f 102//4 98//4 100//4 104//4
f 98//5 97//5 99//5 100//5
f 102//6 101//6 97//6 98//6
f 105//1 109//1 111//1 107//1
f 108//2 107//2 111//2 112//2
f 112//3 111//3 109//3 110//3
f 110//4 106//4 108//4 112//4
f 106//5 105//5 107//5 108//5
f 110//6 109//6 105//6 106//6
f 113//1 117//1 119//1 115//1
f 116//2 115//2 119//2 120//2
f 120//3 119//3 117//3 118//3
f 118//4 114//4 116//4 120//4
f 114//5 113//5 115//5 116//5
f 118//6 117//6 113//6 114//6
f 121//1 125//1 127//1 123//1
f 124//2 123//2 127//2 128//2
f 128//3 127//3 125//3 126//3
f 126//4 122//4 124//4 128//4
f 122//5 121//5 123//5 124//5
f 126//6 125//6 121//6 122//6
f 129//1 133//1 135//1 131//1
f 132//2 131//2 135//2 136//2
f 136//3 135//3 133//3 134//3
f 134//4 130//4 132//4 136//4
f 130//5 129//5 131//5 132//5
f 134//6 133//6 129//6 130//6
f 137//1 141//1 143//1 139//1
f 140//2 139//2 143//2 144//2
f 144//3 143//3 141//3 142//3
f 142//4 138//4 140//4 144//4
f 138//5 137//5 139//5 140//5
f 142//6 141//6 137//6 138//6
f 145//1 149//1 151//1 147//1
f 148//2 147//2 151//2 152//2
f 152//3 151//3 149//3 150//3
f 150//4 146//4 148//4 152//4
f 146//5 145//5 147//5 148//5
f 150//6 149//6 145//6 146//6
f 153//1 157//1 159//1 155//1
f 156//2 155//2 159//2 160//2
f 160//3 159//3 157//3 158//3
f 158//4 154//4 156//4 160//4
f 154//5 153//5 155//5 156//5
f 158//6 157//6 153//6 154//6
f 161//1 165//1 167//1 163//1
f 164//2 163//2 167//2 168//2
f 168//3 167//3 165//3 166//3
f 166//4 162//4 164//4 168//4
f 162//5 161//5 163//5 164//5
f 166//6 165//6 161//6 162//6
f 169//1 173//1 175//1 171//1
f 172//2 171//2 175//2 176//2
f 176//3 175//3 173//3 174//3
f 174//4 170//4 172//4 176//4
f 170//5 169//5 171//5 172//5
f 174//6 173//6 169//6 170//6
f 177//1 181//1 183//1 179//1
f 180//2 179//2 183//2 184//2
f 184//3 183//3 181//3 182//3
f 182//4 178//4 180//4 184//4
f 178//5 177//5 179//5 180//5
f 182//6 181//6 177//6 178//6
f 185//1 189//1 191//1 187//1
f 188//2 187//2 191//2 192//2
f 192//3 191//3 189//3 190//3
f 190//4 186//4 188//4 192//4
f 186//5 185//5 187//5 188//5
f 190//6 189//6 185//6 186//6
f 193//1 197//1 199//1 195//1
f 196//2 195//2 199//2 200//2
f 200//3 199//3 197//3 198//3
f 198//4 194//4 196//4 200//4
f 194//5 193//5 195//5 196//5
f 198//6 197//6 193//6 194//6
f 201//1 205//1 207//1 203//1
f 204//2 203//2 207//2 208//2
f 208//3 207//3 205//3 206//3
f 206//4 202//4 204//4 208//4
f 202//5 201//5 203//5 204//5
f 206//6 205//6 201//6 202//6
f 209//1 213//1 215//1 211//1
f 212//2 211//2 215//2 216//2
f 216//3 215//3 213//3 214//3
f 214//4 210//4 212//4 216//4
f 210//5 209//5 211//5 212//5
f 214//6 213//6 209//6 210//6
f 217//1 221//1 223//1 219//1
f 220//2 219//2 223//2 224//2
f 224//3 223//3 221//3 222//3
f 222//4 218//4 220//4 224//4
f 218//5 217//5 219//5 220//5
f 222//6 221//6 217//6 218//6
f 225//1 229//1 231//1 227//1
f 228//2 227//2 231//2 232//2
f 232//3 231//3 229//3 230//3
f 230//4 226//4 228//4 232//4
f 226//5 225//5 227//5 228//5
f 230//6 229//6 225//6 226//6
f 233//1 237//1 239//1 235//1
f 236//2 235//2 239//2 240//2
f 240//3 239//3 237//3 238//3
f 238//4 234//4 236//4 240//4
f 234//5 233//5 235//5 236//5
f 238//6 237//6 233//6 234//6
